<?xml version="1.0" standalone="no"?>
<!DOCTYPE svg PUBLIC "-//W3C//DTD SVG 20010904//EN"
 "http://www.w3.org/TR/2001/REC-SVG-20010904/DTD/svg10.dtd">
<svg version="1.0" xmlns="http://www.w3.org/2000/svg"
 width="645.000000pt" height="645.000000pt" viewBox="0 0 645.000000 645.000000"
 preserveAspectRatio="xMidYMid meet">

<g transform="translate(0.000000,645.000000) scale(0.100000,-0.100000)"
fill="#000000" stroke="none">
<path d="M1440 5748 c0 -7 -45 -340 -101 -740 -56 -400 -99 -734 -96 -742 7
-16 107 -40 119 -28 4 4 34 78 67 164 68 180 101 247 172 341 116 154 276 242
549 302 57 13 166 19 460 25 454 10 1704 11 1773 2 l49 -7 -143 -170 c-79 -93
-427 -505 -774 -915 -799 -943 -775 -915 -775 -930 0 -19 220 -307 884 -1159
323 -414 590 -760 593 -767 4 -12 -45 -14 -303 -14 -457 0 -609 18 -749 87
-183 89 -314 288 -366 554 -10 53 -21 134 -25 180 -4 46 -11 90 -17 97 -6 7
-34 12 -74 12 l-64 0 6 -43 c3 -23 19 -215 35 -427 37 -471 59 -730 66 -752 8
-27 168 -30 1397 -26 1007 3 1149 5 1157 18 5 8 10 36 10 62 l0 47 -837 1073
c-916 1174 -1063 1365 -1063 1380 0 12 274 341 835 1003 214 253 541 640 728
859 l338 400 -3 60 -3 61 -1922 3 c-1535 2 -1923 0 -1923 -10z"/>
</g>
</svg>
